<?xml version="1.0" standalone="no"?>
<!DOCTYPE svg PUBLIC "-//W3C//DTD SVG 20010904//EN"
 "http://www.w3.org/TR/2001/REC-SVG-20010904/DTD/svg10.dtd">
<svg version="1.0" xmlns="http://www.w3.org/2000/svg"
 width="1280.000000pt" height="853.000000pt" viewBox="0 0 1280.000000 853.000000"
 preserveAspectRatio="xMidYMid meet">
<metadata>
Created by potrace 1.16, written by Peter Selinger 2001-2019
</metadata>
<g transform="translate(0.000000,853.000000) scale(0.100000,-0.100000)"
fill="#000000" stroke="none">
<path d="M4071 8505 c-29 -14 -72 -39 -95 -57 -22 -17 -237 -226 -476 -463
-239 -237 -660 -654 -935 -926 -275 -272 -725 -717 -1000 -989 -1264 -1252
-1480 -1471 -1510 -1533 -40 -86 -55 -152 -55 -247 0 -122 26 -208 93 -310 17
-25 638 -655 1382 -1400 743 -745 1599 -1603 1901 -1906 348 -350 569 -565
605 -587 281 -178 658 -58 787 248 64 154 48 349 -41 490 -18 29 -620 642
-1449 1475 l-1417 1425 5282 5 5282 5 60 24 c125 50 220 132 283 242 l32 56 0
210 0 209 -36 60 c-65 109 -156 185 -279 235 l-60 24 -5304 5 -5303 5 1208
1194 c1723 1702 1714 1693 1753 1771 17 36 39 101 48 145 48 237 -78 487 -298
590 -51 23 -63 25 -229 25 -166 0 -178 -2 -229 -25z"/>
</g>
</svg>
